<svg xmlns="http://www.w3.org/2000/svg" xmlns:xlink="http://www.w3.org/1999/xlink" width="50" zoomAndPan="magnify" viewBox="0 0 37.5 37.499999" height="50" preserveAspectRatio="xMidYMid meet" version="1.0"><defs><clipPath id="20504d34d3"><path d="M 3.699219 3.699219 L 33.304688 3.699219 L 33.304688 33.304688 L 3.699219 33.304688 Z M 3.699219 3.699219 " clip-rule="nonzero"/></clipPath></defs><g clip-path="url(#20504d34d3)"><path fill="#faf9f6" d="M 18.503906 3.699219 C 10.339844 3.699219 3.699219 10.339844 3.699219 18.503906 C 3.699219 26.664062 10.339844 33.304688 18.503906 33.304688 C 26.664062 33.304688 33.304688 26.664062 33.304688 18.503906 C 33.304688 10.339844 26.664062 3.699219 18.503906 3.699219 Z M 27.871094 27.257812 C 25.9375 23.957031 22.398438 21.890625 18.503906 21.890625 C 14.609375 21.890625 11.070312 23.957031 9.136719 27.257812 C 6.992188 24.964844 5.675781 21.886719 5.675781 18.503906 C 5.675781 11.429688 11.429688 5.675781 18.503906 5.675781 C 25.578125 5.675781 31.332031 11.429688 31.332031 18.503906 C 31.332031 21.886719 30.015625 24.964844 27.871094 27.257812 Z M 27.871094 27.257812 " fill-opacity="1" fill-rule="nonzero"/></g><path fill="#faf9f6" d="M 18.503906 8.078125 C 15.175781 8.078125 12.46875 10.785156 12.46875 14.109375 C 12.46875 17.4375 15.175781 20.144531 18.503906 20.144531 C 21.832031 20.144531 24.539062 17.4375 24.539062 14.109375 C 24.539062 10.785156 21.832031 8.078125 18.503906 8.078125 Z M 18.503906 8.078125 " fill-opacity="1" fill-rule="nonzero"/></svg>